<svg width="100" height="100" viewBox="0 0 100 100" fill="none" xmlns="http://www.w3.org/2000/svg">
<path d="M97.9759 55.2873C98.0144 54.886 97.8805 54.4872 97.6108 54.1889C97.3378 53.8922 96.9538 53.7223 96.5509 53.7223H19.0974V18.2053C19.0974 11.7527 24.3482 6.50162 30.8025 6.50162C35.6057 6.50162 39.7328 9.41601 41.5329 13.6368C35.5771 15.8513 30.9773 22.3482 30.6722 27.7992C30.6627 27.9468 30.7169 28.0911 30.8182 28.199C30.9199 28.3069 31.0627 28.3675 31.2089 28.3675H60.3022C60.4481 28.3675 60.5908 28.3053 60.6927 28.199C60.794 28.0911 60.848 27.9466 60.8387 27.7992C60.5054 21.8405 55.0383 14.6432 48.2765 13.1461C46.0792 5.56338 39.0851 0 30.8025 0C20.7641 0 12.5956 8.16687 12.5956 18.2053V53.7225H3.44907C3.04593 53.7225 2.66174 53.8922 2.39182 54.1905C2.11881 54.4872 1.98539 54.8876 2.02348 55.2873C3.05849 66.2067 10.5984 78.8517 21.7511 87.4884C22.4497 88.0281 23.2115 88.4553 23.9513 88.9185L21.0906 91.5047C19.0939 93.3108 18.9382 96.3936 20.7416 98.392C21.7036 99.4587 23.0305 100 24.3608 100C25.5292 100 26.6977 99.5841 27.631 98.7428L34.3387 92.6841C35.4851 92.8348 36.6375 92.9682 37.8055 92.9682H62.1939C63.3621 92.9682 64.5145 92.8348 65.6638 92.681L72.375 98.7428C73.3056 99.586 74.4767 100 75.6418 100C76.9721 100 78.2991 99.4571 79.261 98.392C81.0673 96.3936 80.9085 93.3094 78.9085 91.5047L76.0448 88.9185C76.7878 88.4553 77.5498 88.0281 78.2484 87.4884C89.4011 78.8517 96.9413 66.2069 97.9759 55.2873Z" fill="#151B29"/>
</svg>
