<svg width="100" height="100" viewBox="0 0 100 100" fill="none" xmlns="http://www.w3.org/2000/svg">
<g clip-path="url(#clip0_122_1043)">
<path d="M94.1564 49.1415C89.0117 43.9968 80.6704 43.9968 75.5257 49.1415C74.5405 50.1267 73.7454 51.23 73.1376 52.4048L47.0374 38.0735C46.9567 37.8563 46.8649 37.6413 46.7608 37.429C45.9973 35.8688 44.7297 34.7214 43.251 34.0827C41.4387 33.2999 39.3086 33.2827 37.3963 34.2186C36.7905 34.5151 36.2483 34.8888 35.7725 35.3198C35.6018 35.4743 35.4399 35.6364 35.2867 35.8052C33.4901 37.7888 32.9313 40.7054 34.0489 43.2843C34.0922 43.3843 34.1373 43.4839 34.1858 43.5829C35.0289 45.306 36.4862 46.5271 38.1645 47.1136L52.4366 73.106C51.2618 73.714 50.1585 74.5088 49.1733 75.4941C44.0286 80.6388 44.0286 88.9801 49.1733 94.1246C54.318 99.2692 62.6593 99.2693 67.804 94.1246C72.6179 89.3107 72.9267 81.6986 68.7319 76.5248L68.8405 76.5304L50.9428 50.9111L76.562 68.8089L76.5564 68.7003C81.7302 72.8951 89.3423 72.5865 94.1562 67.7724C99.3011 62.6273 99.3011 54.2863 94.1564 49.1415ZM62.7989 80.4988C65.1794 82.8793 65.1794 86.7385 62.7989 89.1189C60.4184 91.4994 56.5592 91.4994 54.1788 89.1189C51.7983 86.7385 51.7983 82.8793 54.1788 80.4988C56.5592 78.1183 60.4186 78.1183 62.7989 80.4988ZM89.1511 62.7669C86.7706 65.1474 82.9114 65.1474 80.531 62.7669C78.1505 60.3865 78.1505 56.5273 80.531 54.1468C82.9114 51.7663 86.7706 51.7663 89.1511 54.1468C91.5316 56.5271 91.5316 60.3865 89.1511 62.7669Z" fill="#151B29"/>
<path d="M95.5649 47.733C92.7004 44.8685 88.8918 43.291 84.841 43.291C80.7901 43.291 76.9817 44.8685 74.1172 47.733C73.4949 48.3553 72.9301 49.0271 72.4277 49.7424L48.5984 36.658C48.5818 36.6234 48.5673 36.5881 48.5503 36.5537C47.9011 35.2267 46.957 34.1054 45.7986 33.2568C46.2664 32.0027 46.6097 30.6547 46.8173 29.2254C47.58 23.9751 46.4228 18.2281 43.5583 13.0439C40.6943 7.8593 36.4452 3.82042 31.5945 1.6712C26.5556 -0.561226 21.4649 -0.511616 17.2602 1.81105C16.7979 2.06651 16.4559 2.49523 16.3097 3.00284C16.1632 3.51046 16.2245 4.05539 16.48 4.51769L31.2868 31.3189L4.48561 16.5124C4.0235 16.257 3.47799 16.1958 2.97076 16.3421C2.46295 16.4884 2.03424 16.8304 1.77896 17.2927C-0.543891 21.4972 -0.593501 26.5877 1.63912 31.6267C3.78834 36.4777 7.82683 40.7266 13.0114 43.5908C17.155 45.8799 21.6565 47.0785 25.9778 47.0785C27.0636 47.0785 28.139 47.0025 29.1933 46.8496C30.6237 46.6418 31.9726 46.298 33.2277 45.8297C34.1372 47.073 35.346 48.0572 36.7617 48.6959L49.7748 72.3956C49.0597 72.8979 48.3877 73.4627 47.7652 74.085C41.8521 79.9985 41.8521 89.6196 47.7652 95.5329C50.7218 98.4894 54.6054 99.9677 58.489 99.9677C62.3726 99.9677 66.2564 98.4894 69.2129 95.5329C74.559 90.1868 75.1484 81.8237 70.698 75.8102C70.6412 75.6633 70.5664 75.5219 70.4736 75.3893L59.0047 58.9723L75.4215 70.4413C75.5539 70.534 75.6953 70.609 75.8422 70.6657C78.5313 72.6557 81.6895 73.6381 84.8385 73.6379C88.7313 73.6377 92.6096 72.136 95.5651 69.1807C101.478 63.2676 101.478 53.6461 95.5649 47.733ZM31.9675 37.5896C31.4536 39.0885 31.3476 40.6596 31.6362 42.1748C26.9228 43.8699 20.669 43.2701 14.9376 40.1035C6.78581 35.5998 2.45924 27.4386 4.47624 21.0589L32.4243 36.4994C32.2507 36.85 32.0966 37.2131 31.9675 37.5896ZM21.0272 4.50988C23.7362 3.65675 26.8456 3.92472 29.9804 5.31359C34.0411 7.11262 37.6247 10.5419 40.0708 14.9703C42.5171 19.3982 43.5128 24.2574 42.8744 28.6527C42.7189 29.7228 42.4701 30.731 42.1347 31.6679C40.2388 31.3074 38.2857 31.5658 36.5206 32.4293C36.5023 32.4383 36.4849 32.4482 36.4669 32.4572L21.0272 4.50988ZM35.4661 40.5461C35.4661 37.7408 37.7404 35.4666 40.5456 35.4666C43.3509 35.4666 45.6251 37.7408 45.6251 40.5461C45.6251 43.3514 43.3509 45.6256 40.5456 45.6256C37.7404 45.6256 35.4661 43.3516 35.4661 40.5461ZM66.8379 77.1421C66.9121 77.3698 67.0281 77.586 67.1846 77.779C70.7959 82.2331 70.4566 88.6546 66.3953 92.7157C62.0357 97.0753 54.942 97.0759 50.5818 92.7157C46.222 88.3558 46.222 81.262 50.5816 76.9022C51.399 76.0848 52.3308 75.403 53.3519 74.8745C53.8289 74.6276 54.1857 74.1991 54.3422 73.6854C54.4986 73.1719 54.441 72.6169 54.1826 72.1461L41.7009 49.4139C42.5724 49.293 43.4292 49.0422 44.2478 48.6629L49.5117 52.3401L66.8379 77.1421ZM92.7477 66.3635C88.6864 70.425 82.2651 70.7639 77.8111 67.1528C77.6182 66.9963 77.402 66.8805 77.1742 66.8061L52.373 49.4799L47.5244 46.0926C47.983 45.5129 48.3695 44.8744 48.6763 44.1883C48.7878 43.9389 48.8898 43.684 48.9794 43.4223C49.18 42.8371 49.3179 42.2406 49.3955 41.6408L72.1791 54.1512C72.6498 54.4098 73.2047 54.467 73.7184 54.3108C74.2318 54.1543 74.6606 53.7975 74.9074 53.3205C75.4357 52.2992 76.1178 51.3674 76.935 50.5504C81.2949 46.1906 88.3885 46.1906 92.7485 50.5504C97.1081 54.9102 97.1075 62.0037 92.7477 66.3635Z" fill="#151B29"/>
<path d="M39.4688 30.0973C39.3618 30.0973 39.2536 30.0886 39.1444 30.0706C38.0589 29.8927 37.3227 28.8684 37.5008 27.7827C37.7895 26.0206 37.6907 24.0509 37.2147 22.0864C36.9555 21.0171 37.6126 19.9405 38.6817 19.6815C39.7508 19.4223 40.8274 20.0794 41.0866 21.1485C41.687 23.6266 41.8063 26.1434 41.4321 28.427C41.2719 29.4036 40.4272 30.0973 39.4688 30.0973Z" fill="#151B29"/>
<path d="M37.1883 18.6013C36.4867 18.6013 35.8063 18.2298 35.443 17.5722C33.3233 13.7355 30.0051 10.8792 26.5666 9.93194C25.5061 9.63955 24.8834 8.54287 25.1756 7.48213C25.468 6.42158 26.5645 5.79892 27.6254 6.09111C32.0766 7.31787 36.3028 10.8896 38.9301 15.6456C39.4621 16.6085 39.1127 17.8204 38.1498 18.3525C37.8446 18.5212 37.5143 18.6013 37.1883 18.6013Z" fill="#151B29"/>
</g>
<defs>
<clipPath id="clip0_122_1043">
<rect width="100" height="100" fill="white"/>
</clipPath>
</defs>
</svg>
