<svg width="16" height="17" viewBox="0 0 16 17" fill="none" xmlns="http://www.w3.org/2000/svg">
<path d="M5.00518 4.73517C5.1633 3.90104 5.37883 3.15195 5.63577 2.51848C5.91906 1.81811 6.24565 1.28209 6.58447 0.929526C6.92141 0.577912 7.24047 0.435547 7.52941 0.435547C7.81836 0.435547 8.13741 0.577912 8.47436 0.929526C8.81318 1.28305 9.13977 1.81811 9.42306 2.51848C9.68 3.15195 9.89553 3.90104 10.0536 4.73517H5.00518ZM4.76518 2.1554C4.96608 1.64124 5.22742 1.1536 5.54353 0.703079C4.50927 0.991339 3.5474 1.50005 2.722 2.19531C1.8966 2.89057 1.22662 3.75642 0.756711 4.73517H4.048C4.2193 3.77301 4.46306 2.89875 4.76518 2.1554ZM10.2936 2.1554C10.0927 1.64158 9.83133 1.15426 9.5153 0.704034C10.5495 0.992188 11.5113 1.50075 12.3367 2.19584C13.1621 2.89093 13.8321 3.7566 14.3021 4.73517H11.0108C10.8395 3.77301 10.5958 2.89875 10.2936 2.1554ZM11.1529 5.69064H14.6842C14.9045 6.37094 15.0325 7.09327 15.0551 7.84332C14.362 7.36806 13.5432 7.11751 12.7068 7.12481C12.1986 7.12481 11.7205 7.2108 11.2819 7.36845C11.263 6.80754 11.22 6.24774 11.1529 5.69064ZM10.352 7.8481C10.3443 7.12663 10.295 6.40625 10.2042 5.69064H4.85459C4.75448 6.48279 4.70481 7.28068 4.70589 8.07932C4.70589 8.91536 4.75859 9.717 4.85459 10.468H8.60236C8.85836 9.39023 9.47765 8.45291 10.352 7.8481ZM8.47341 11.4235H5.00518C5.1633 12.2576 5.37883 13.0067 5.63577 13.6402C5.91906 14.3405 6.24565 14.8765 6.58447 15.2291C6.92141 15.5807 7.24047 15.7231 7.52941 15.7231C7.81836 15.7231 8.13741 15.5807 8.47436 15.2291C8.71341 14.9807 8.94683 14.6396 9.1633 14.2135C8.70118 13.321 8.47059 12.4267 8.47059 11.5974L8.47341 11.4235ZM0.756711 11.4235C1.22683 12.4021 1.897 13.2679 2.72256 13.963C3.54813 14.6581 4.51013 15.1666 5.54447 15.4546C5.22816 15.0047 4.9665 14.5177 4.76518 14.0042C4.464 13.2589 4.2193 12.3856 4.048 11.4235H0.756711ZM3.90589 10.468H0.374593C0.125518 9.69703 -0.000930413 8.89069 5.15365e-06 8.07932C5.15365e-06 7.24519 0.13177 6.4426 0.374593 5.69064H3.90589C3.81365 6.45024 3.76471 7.25188 3.76471 8.07932C3.76471 8.90676 3.81365 9.7084 3.90589 10.468ZM16 11.5974C16 9.65489 14.6212 8.08028 12.7068 8.08028C10.7934 8.08028 9.41177 9.65489 9.41177 11.5974C9.41177 13.0535 10.336 14.9702 12.4762 16.6002C12.6127 16.7053 12.8009 16.7053 12.9374 16.6002C15.0795 14.9702 16 13.0535 16 11.5974ZM14.1176 11.4235C14.1176 11.8036 13.9689 12.1681 13.7042 12.4369C13.4394 12.7057 13.0803 12.8567 12.7059 12.8567C12.3315 12.8567 11.9724 12.7057 11.7076 12.4369C11.4429 12.1681 11.2941 11.8036 11.2941 11.4235C11.2941 11.0434 11.4429 10.6788 11.7076 10.41C11.9724 10.1413 12.3315 9.99026 12.7059 9.99026C13.0803 9.99026 13.4394 10.1413 13.7042 10.41C13.9689 10.6788 14.1176 11.0434 14.1176 11.4235Z" fill="#EC994B"/>
</svg>
