<svg width="30" height="22" viewBox="0 0 30 22" fill="none" xmlns="http://www.w3.org/2000/svg">
<path d="M15.0004 8.7141L27.7408 0.770119C27.6022 0.74816 27.4616 0.733887 27.3175 0.733887H2.68324C2.53913 0.733887 2.39832 0.748709 2.26025 0.770119L15.0004 8.7141Z" fill="#EC994B"/>
<path d="M15.8021 11.7858C15.785 11.7968 15.7664 11.8039 15.7488 11.8143C15.7304 11.8245 15.7107 11.8344 15.6923 11.8437C15.5921 11.8953 15.4889 11.9368 15.3835 11.9642C15.3725 11.9672 15.3621 11.9689 15.3516 11.9711C15.2355 11.9982 15.1189 12.015 15.0019 12.015H15.0008H14.9994C14.8825 12.015 14.7656 11.9985 14.65 11.9711C14.6393 11.9686 14.6283 11.9669 14.6176 11.9642C14.5122 11.9365 14.4098 11.895 14.3091 11.8437C14.2902 11.8344 14.271 11.8245 14.2523 11.8143C14.2344 11.8042 14.2161 11.797 14.1985 11.7858L0.0419968 2.9585C0.0164693 3.10754 0 3.26016 0 3.41717V17.5833C0 19.065 1.20089 20.2661 2.68286 20.2661H27.3171C28.7988 20.2661 30 19.065 30 17.5833V3.41717C30 3.26016 29.9838 3.10782 29.9577 2.9585L15.8021 11.7858Z" fill="#EC994B"/>
</svg>
