<svg width="207" height="60" viewBox="0 0 207 60" fill="none" xmlns="http://www.w3.org/2000/svg">
<g clip-path="url(#clip0_309_88)">
<path d="M15.2353 0.617489C9.64705 1.44102 4.58823 3.85278 1.5294 7.1469C0.235286 8.58808 -0.0294199 9.70573 0.617639 10.941C1.55882 12.7057 7.47058 21.3822 8.0294 21.8234C9.08823 22.6763 10.5 22.4998 11.5294 21.3822C12.9706 19.8822 21.8529 3.29396 21.8235 2.23514C21.7647 0.382195 19.9118 -0.0589828 15.2353 0.617489Z" fill="#EC994B"/>
<path d="M55.9706 1.14687C53.6765 2.58804 53.7648 4.08804 56.3824 8.97039C57.5295 11.088 59.1471 14.1175 60.0001 15.7351C60.853 17.3527 61.8236 19.0292 62.1177 19.4998C63.2648 21.1469 65.7059 21.6763 67.5589 20.6469C68.5295 20.1469 73.1471 13.7645 74.0001 11.7939C74.9412 9.52922 74.2059 7.64687 71.5295 5.58804C68.0295 2.88216 63.3824 1.08804 59.0001 0.7351C57.2353 0.588041 56.7648 0.646866 55.9706 1.14687Z" fill="#EC994B"/>
<path d="M22.4411 17.0295C21.2647 17.7648 20.8823 18.4707 20.8823 20.0001C20.8823 21.0001 21.0588 21.4119 21.8823 22.2354C23.7647 24.1178 26.647 23.4119 27.3823 20.8825C28.2647 17.9707 25 15.4119 22.4411 17.0295Z" fill="#EC994B"/>
<path d="M48.0588 17.7648C47.2941 18.5295 47.0588 19.0001 47.0588 19.8236C47.0588 21.3825 47.7353 22.4707 49.0883 23.0589C50.5 23.706 51.5588 23.5295 52.7059 22.4413C54.9412 20.3236 53.4706 16.7648 50.3824 16.7648C49.2647 16.7648 48.9118 16.9119 48.0588 17.7648Z" fill="#EC994B"/>
<path d="M58.353 28.3529C57.5 28.7353 57.4412 28.9118 57.2648 30.6176C56.8236 34.7059 53.8236 38.7647 49.7942 40.6765C47.9118 41.5588 47.6177 41.6176 44.4118 41.6176C41.5589 41.6176 40.8236 41.5294 39.6471 40.9706L38.2942 40.3529L36.8236 41.7647C33.9706 44.5 29.4706 45.9706 25.8236 45.3235C22.1177 44.6765 18.7059 42.4706 16.7647 39.4118C14.0295 35.1471 7.1471 36.1765 5.47063 41.0882C4.58827 43.6765 5.00004 45.7059 6.76475 47.7353L7.94122 49.0588L7.35298 50.3235C4.47063 56.6765 12.353 62.5588 17.6471 58.0294C18.2942 57.4706 19.1177 56.4412 19.4412 55.7647C20.1765 54.3235 21.5883 52.7647 22.7647 52.1471C23.2059 51.9118 27.9118 50.9412 33.2059 49.9706C38.4706 49.0294 45.1177 47.8235 47.9412 47.3235C52.9706 46.4118 53.1177 46.3823 54.7353 46.8529C55.7353 47.1471 56.8824 47.7647 57.6765 48.4706C59.6471 50.2059 60.7648 50.6765 62.8236 50.6765C64.6765 50.6765 65.3824 50.4118 67.0295 49.1765C68.2648 48.2353 69.4118 45.8529 69.4118 44.1176C69.4118 42.5294 68.3236 40.0588 67.2648 39.2059L66.5001 38.6176L67.0589 37.0882C67.8824 34.9706 67.8236 33.3823 66.853 31.4412C65.6471 29.0882 64.0883 28.1176 61.3824 28.0294C60.0295 27.9706 58.9412 28.0882 58.353 28.3529Z" fill="#EC994B"/>
<path d="M32.4117 29.1766C31.9117 29.6766 31.9706 31.6177 32.5 32.6471C32.7353 33.1177 33.3529 33.7942 33.8823 34.1766C34.7059 34.7648 35.2059 34.853 37.2647 34.853C39.2353 34.853 39.7941 34.7354 40.4706 34.2354C41.7647 33.2648 42.3823 32.2648 42.4412 30.9707C42.5 28.9119 42.2941 28.8236 37.2353 28.8236C34.147 28.8236 32.647 28.9413 32.4117 29.1766Z" fill="#EC994B"/>
<path d="M45.5881 35.1472C45.5881 35.3825 45.8528 35.5884 46.1764 35.5884C46.4999 35.5884 46.7646 35.3825 46.7646 35.1472C46.7646 34.9119 46.4999 34.706 46.1764 34.706C45.8528 34.706 45.5881 34.9119 45.5881 35.1472Z" fill="#EC994B"/>
<path d="M49.1177 36.3236C49.1177 36.6177 49.3236 36.7648 49.6471 36.706C50.2647 36.5883 50.2059 36.0589 49.5883 35.9413C49.2941 35.8824 49.1177 36.0295 49.1177 36.3236Z" fill="#EC994B"/>
<path d="M28.8235 37.4706C28.8235 37.7059 28.9411 37.9706 29.0882 38.0588C29.4117 38.2647 30.0588 37.5294 29.7941 37.2647C29.4411 36.9118 28.8235 37.0588 28.8235 37.4706Z" fill="#EC994B"/>
<path d="M44.7058 38.5294C44.7058 38.853 44.9117 39.1177 45.147 39.1177C45.3823 39.1177 45.5882 38.853 45.5882 38.5294C45.5882 38.2059 45.3823 37.9412 45.147 37.9412C44.9117 37.9412 44.7058 38.2059 44.7058 38.5294Z" fill="#EC994B"/>
<path d="M31.5883 39.7353C31.2942 40.2353 31.9706 40.7941 32.3824 40.3824C32.7353 40.0294 32.5 39.4118 32.0589 39.4118C31.9118 39.4118 31.7059 39.5588 31.5883 39.7353Z" fill="#EC994B"/>
<path d="M26.5883 40.0293C26.2942 40.5293 26.9706 41.0881 27.3824 40.6763C27.7353 40.3234 27.5 39.7057 27.0589 39.7057C26.9118 39.7057 26.7059 39.8528 26.5883 40.0293Z" fill="#EC994B"/>
</g>
<path d="M104.006 29.84C104.792 29.9867 105.439 30.38 105.946 31.02C106.452 31.66 106.706 32.3933 106.706 33.22C106.706 33.9667 106.519 34.6267 106.146 35.2C105.786 35.76 105.259 36.2 104.566 36.52C103.872 36.84 103.052 37 102.106 37H96.0858V23.04H101.846C102.792 23.04 103.606 23.1933 104.286 23.5C104.979 23.8067 105.499 24.2333 105.846 24.78C106.206 25.3267 106.386 25.9467 106.386 26.64C106.386 27.4533 106.166 28.1333 105.726 28.68C105.299 29.2267 104.726 29.6133 104.006 29.84ZM98.8858 28.8H101.446C102.112 28.8 102.626 28.6533 102.986 28.36C103.346 28.0533 103.526 27.62 103.526 27.06C103.526 26.5 103.346 26.0667 102.986 25.76C102.626 25.4533 102.112 25.3 101.446 25.3H98.8858V28.8ZM101.706 34.72C102.386 34.72 102.912 34.56 103.286 34.24C103.672 33.92 103.866 33.4667 103.866 32.88C103.866 32.28 103.666 31.8133 103.266 31.48C102.866 31.1333 102.326 30.96 101.646 30.96H98.8858V34.72H101.706ZM119.397 25.92V37H116.577V35.6C116.217 36.08 115.744 36.46 115.157 36.74C114.584 37.0067 113.957 37.14 113.277 37.14C112.411 37.14 111.644 36.96 110.977 36.6C110.311 36.2267 109.784 35.6867 109.397 34.98C109.024 34.26 108.837 33.4067 108.837 32.42V25.92H111.637V32.02C111.637 32.9 111.857 33.58 112.297 34.06C112.737 34.5267 113.337 34.76 114.097 34.76C114.871 34.76 115.477 34.5267 115.917 34.06C116.357 33.58 116.577 32.9 116.577 32.02V25.92H119.397ZM124.96 27.54C125.32 27.0067 125.813 26.5733 126.44 26.24C127.08 25.9067 127.807 25.74 128.62 25.74C129.567 25.74 130.42 25.9733 131.18 26.44C131.953 26.9067 132.56 27.5733 133 28.44C133.453 29.2933 133.68 30.2867 133.68 31.42C133.68 32.5533 133.453 33.56 133 34.44C132.56 35.3067 131.953 35.98 131.18 36.46C130.42 36.94 129.567 37.18 128.62 37.18C127.793 37.18 127.067 37.02 126.44 36.7C125.827 36.3667 125.333 35.94 124.96 35.42V37H122.16V22.2H124.96V27.54ZM130.82 31.42C130.82 30.7533 130.68 30.18 130.4 29.7C130.133 29.2067 129.773 28.8333 129.32 28.58C128.88 28.3267 128.4 28.2 127.88 28.2C127.373 28.2 126.893 28.3333 126.44 28.6C126 28.8533 125.64 29.2267 125.36 29.72C125.093 30.2133 124.96 30.7933 124.96 31.46C124.96 32.1267 125.093 32.7067 125.36 33.2C125.64 33.6933 126 34.0733 126.44 34.34C126.893 34.5933 127.373 34.72 127.88 34.72C128.4 34.72 128.88 34.5867 129.32 34.32C129.773 34.0533 130.133 33.6733 130.4 33.18C130.68 32.6867 130.82 32.1 130.82 31.42ZM138.515 27.54C138.875 27.0067 139.368 26.5733 139.995 26.24C140.635 25.9067 141.361 25.74 142.175 25.74C143.121 25.74 143.975 25.9733 144.735 26.44C145.508 26.9067 146.115 27.5733 146.555 28.44C147.008 29.2933 147.235 30.2867 147.235 31.42C147.235 32.5533 147.008 33.56 146.555 34.44C146.115 35.3067 145.508 35.98 144.735 36.46C143.975 36.94 143.121 37.18 142.175 37.18C141.348 37.18 140.621 37.02 139.995 36.7C139.381 36.3667 138.888 35.94 138.515 35.42V37H135.715V22.2H138.515V27.54ZM144.375 31.42C144.375 30.7533 144.235 30.18 143.955 29.7C143.688 29.2067 143.328 28.8333 142.875 28.58C142.435 28.3267 141.955 28.2 141.435 28.2C140.928 28.2 140.448 28.3333 139.995 28.6C139.555 28.8533 139.195 29.2267 138.915 29.72C138.648 30.2133 138.515 30.7933 138.515 31.46C138.515 32.1267 138.648 32.7067 138.915 33.2C139.195 33.6933 139.555 34.0733 139.995 34.34C140.448 34.5933 140.928 34.72 141.435 34.72C141.955 34.72 142.435 34.5867 142.875 34.32C143.328 34.0533 143.688 33.6733 143.955 33.18C144.235 32.6867 144.375 32.1 144.375 31.42ZM152.069 22.2V37H149.269V22.2H152.069ZM165.136 31.22C165.136 31.62 165.109 31.98 165.056 32.3H156.956C157.022 33.1 157.302 33.7267 157.796 34.18C158.289 34.6333 158.896 34.86 159.616 34.86C160.656 34.86 161.396 34.4133 161.836 33.52H164.856C164.536 34.5867 163.922 35.4667 163.016 36.16C162.109 36.84 160.996 37.18 159.676 37.18C158.609 37.18 157.649 36.9467 156.796 36.48C155.956 36 155.296 35.3267 154.816 34.46C154.349 33.5933 154.116 32.5933 154.116 31.46C154.116 30.3133 154.349 29.3067 154.816 28.44C155.282 27.5733 155.936 26.9067 156.776 26.44C157.616 25.9733 158.582 25.74 159.676 25.74C160.729 25.74 161.669 25.9667 162.496 26.42C163.336 26.8733 163.982 27.52 164.436 28.36C164.902 29.1867 165.136 30.14 165.136 31.22ZM162.236 30.42C162.222 29.7 161.962 29.1267 161.456 28.7C160.949 28.26 160.329 28.04 159.596 28.04C158.902 28.04 158.316 28.2533 157.836 28.68C157.369 29.0933 157.082 29.6733 156.976 30.42H162.236ZM172.06 23.04C173.526 23.04 174.813 23.3267 175.92 23.9C177.04 24.4733 177.9 25.2933 178.5 26.36C179.113 27.4133 179.42 28.64 179.42 30.04C179.42 31.44 179.113 32.6667 178.5 33.72C177.9 34.76 177.04 35.5667 175.92 36.14C174.813 36.7133 173.526 37 172.06 37H167.18V23.04H172.06ZM171.96 34.62C173.426 34.62 174.56 34.22 175.36 33.42C176.16 32.62 176.56 31.4933 176.56 30.04C176.56 28.5867 176.16 27.4533 175.36 26.64C174.56 25.8133 173.426 25.4 171.96 25.4H169.98V34.62H171.96ZM186.435 37.18C185.369 37.18 184.409 36.9467 183.555 36.48C182.702 36 182.029 35.3267 181.535 34.46C181.055 33.5933 180.815 32.5933 180.815 31.46C180.815 30.3267 181.062 29.3267 181.555 28.46C182.062 27.5933 182.749 26.9267 183.615 26.46C184.482 25.98 185.449 25.74 186.515 25.74C187.582 25.74 188.549 25.98 189.415 26.46C190.282 26.9267 190.962 27.5933 191.455 28.46C191.962 29.3267 192.215 30.3267 192.215 31.46C192.215 32.5933 191.955 33.5933 191.435 34.46C190.929 35.3267 190.235 36 189.355 36.48C188.489 36.9467 187.515 37.18 186.435 37.18ZM186.435 34.74C186.942 34.74 187.415 34.62 187.855 34.38C188.309 34.1267 188.669 33.7533 188.935 33.26C189.202 32.7667 189.335 32.1667 189.335 31.46C189.335 30.4067 189.055 29.6 188.495 29.04C187.949 28.4667 187.275 28.18 186.475 28.18C185.675 28.18 185.002 28.4667 184.455 29.04C183.922 29.6 183.655 30.4067 183.655 31.46C183.655 32.5133 183.915 33.3267 184.435 33.9C184.969 34.46 185.635 34.74 186.435 34.74ZM198.609 25.74C199.436 25.74 200.163 25.9067 200.789 26.24C201.416 26.56 201.909 26.98 202.269 27.5V25.92H205.089V37.08C205.089 38.1067 204.883 39.02 204.469 39.82C204.056 40.6333 203.436 41.2733 202.609 41.74C201.783 42.22 200.783 42.46 199.609 42.46C198.036 42.46 196.743 42.0933 195.729 41.36C194.729 40.6267 194.163 39.6267 194.029 38.36H196.809C196.956 38.8667 197.269 39.2667 197.749 39.56C198.243 39.8667 198.836 40.02 199.529 40.02C200.343 40.02 201.003 39.7733 201.509 39.28C202.016 38.8 202.269 38.0667 202.269 37.08V35.36C201.909 35.88 201.409 36.3133 200.769 36.66C200.143 37.0067 199.423 37.18 198.609 37.18C197.676 37.18 196.823 36.94 196.049 36.46C195.276 35.98 194.663 35.3067 194.209 34.44C193.769 33.56 193.549 32.5533 193.549 31.42C193.549 30.3 193.769 29.3067 194.209 28.44C194.663 27.5733 195.269 26.9067 196.029 26.44C196.803 25.9733 197.663 25.74 198.609 25.74ZM202.269 31.46C202.269 30.78 202.136 30.2 201.869 29.72C201.603 29.2267 201.243 28.8533 200.789 28.6C200.336 28.3333 199.849 28.2 199.329 28.2C198.809 28.2 198.329 28.3267 197.889 28.58C197.449 28.8333 197.089 29.2067 196.809 29.7C196.543 30.18 196.409 30.7533 196.409 31.42C196.409 32.0867 196.543 32.6733 196.809 33.18C197.089 33.6733 197.449 34.0533 197.889 34.32C198.343 34.5867 198.823 34.72 199.329 34.72C199.849 34.72 200.336 34.5933 200.789 34.34C201.243 34.0733 201.603 33.7 201.869 33.22C202.136 32.7267 202.269 32.14 202.269 31.46Z" fill="#EC994B"/>
<defs>
<clipPath id="clip0_309_88">
<rect width="74.7059" height="60" fill="white"/>
</clipPath>
</defs>
</svg>
