<svg width="74" height="73" viewBox="0 0 74 73" fill="none" xmlns="http://www.w3.org/2000/svg">
<path d="M37 0.299805L0.90625 29.1717V35.5779L37 6.6998L73.0938 35.5779V29.1717L37 0.299805ZM37 10.2998L8.40625 33.1717V72.0936H23.0938C23.1094 67.0467 23.2188 59.6717 24.6875 53.1873C25.5 49.6404 26.7031 46.3279 28.6562 43.8123C30.625 41.2811 33.4531 39.5936 37 39.5936C40.5469 39.5936 43.375 41.2811 45.3438 43.8123C47.2969 46.3279 48.5 49.6404 49.3125 53.1873C50.7812 59.6717 50.8906 67.0467 50.9062 72.0936H65.5938V33.1717L37 10.2998ZM22.6094 26.9686C23.2323 26.9844 23.8824 27.1026 24.5 27.3123C25.1888 27.543 25.8127 27.8788 26.3014 28.2819C26.7901 28.685 27.124 29.1393 27.2656 29.5936H46.7344C46.876 29.1393 47.2099 28.685 47.6986 28.2819C48.1873 27.8788 48.8112 27.543 49.5 27.3123C50.1176 27.1026 50.7677 26.9844 51.3906 26.9686C52.0593 26.9561 52.6708 27.0628 53.1603 27.2773C53.6499 27.4918 53.9994 27.8062 54.1719 28.1873C54.3961 28.6761 54.3162 29.2486 53.9458 29.8071C53.5753 30.3657 52.9373 30.8755 52.1406 31.2498C52.8305 31.6338 53.3646 32.1197 53.6653 32.6367C53.966 33.1538 54.0176 33.6751 53.8125 34.1248C53.6871 34.4036 53.4667 34.6478 53.1637 34.8436C52.8608 35.0393 52.4814 35.1827 52.0473 35.2654C51.6132 35.3482 51.133 35.3687 50.6342 35.3258C50.1354 35.2829 49.6278 35.1774 49.1406 35.0154C48.3672 34.7556 47.6783 34.3639 47.1709 33.8958C46.6635 33.4277 46.3633 32.9066 46.3125 32.4061H27.6875C27.6367 32.9066 27.3365 33.4277 26.8291 33.8958C26.3217 34.3639 25.6328 34.7556 24.8594 35.0154C24.3722 35.1774 23.8646 35.2829 23.3658 35.3258C22.867 35.3687 22.3868 35.3482 21.9527 35.2654C21.5186 35.1827 21.1392 35.0393 20.8363 34.8436C20.5333 34.6478 20.3129 34.4036 20.1875 34.1248C19.9824 33.6751 20.034 33.1538 20.3347 32.6367C20.6354 32.1197 21.1695 31.6338 21.8594 31.2498C21.0627 30.8755 20.4247 30.3657 20.0542 29.8071C19.6838 29.2486 19.6039 28.6761 19.8281 28.1873C20.0006 27.8062 20.3501 27.4918 20.8397 27.2773C21.3292 27.0628 21.9407 26.9561 22.6094 26.9686Z" fill="#EC994B"/>
</svg>
