<svg width="100" height="100" viewBox="0 0 100 100" fill="none" xmlns="http://www.w3.org/2000/svg">
<g clip-path="url(#clip0_117_738)">
<path d="M89.1594 24.5992C87.778 23.2174 85.7211 22.9295 84.0522 23.7254L74.342 14.0157C72.5887 12.2624 69.7456 12.2624 67.9919 14.0157L48.9405 33.066C48.0985 33.908 47.6255 35.0504 47.6255 36.2412C47.6255 37.4324 48.0985 38.5744 48.9405 39.4162L58.4661 48.9416L51.3206 56.0871L36.8056 66.4544C36.6044 66.5982 36.4152 66.7585 36.2404 66.9333L10.84 92.3345C9.08709 94.0882 9.08709 96.9313 10.8406 98.6848C11.7174 99.5616 12.8666 99.9999 14.0156 99.9999C15.1644 99.9999 16.314 99.5614 17.1906 98.6848L42.3282 73.5472L56.8432 63.1794C57.0444 63.0357 57.2337 62.8755 57.4085 62.7005L89.1594 30.9496C90.9129 29.1961 90.9129 26.3528 89.1594 24.5992Z" fill="#151B29"/>
<path d="M61.642 1.31518C59.8891 -0.438329 57.0458 -0.438329 55.2919 1.31479L36.2409 20.3655C34.4874 22.1189 34.4874 24.962 36.2409 26.7157C37.1177 27.5929 38.2669 28.0311 39.4161 28.0311C40.5649 28.0311 41.7145 27.5927 42.5911 26.7157L61.642 7.66537C63.3957 5.91205 63.3957 3.0685 61.642 1.31518Z" fill="#151B29"/>
</g>
<defs>
<clipPath id="clip0_117_738">
<rect width="100" height="100" fill="white"/>
</clipPath>
</defs>
</svg>
