<svg width="100" height="100" viewBox="0 0 100 100" fill="none" xmlns="http://www.w3.org/2000/svg">
<path d="M86.107 76.0047C83.4496 71.3706 79.326 68.2321 74.9733 67.0507C71.5338 66.1114 67.9665 66.3994 64.8804 68.1437L55.7005 52.0945C61.3819 40.7612 74.1355 15.3521 76.4231 11.3464C79.3882 6.16573 74.0832 0 74.0832 0L49.9963 42.1259L25.9159 0C25.9159 0 20.6141 6.16573 23.5759 11.3431C25.8668 15.3521 38.6237 40.7579 44.2985 52.0912L35.1219 68.1405C32.0358 66.3961 28.462 66.1081 25.029 67.0474C20.6698 68.2288 16.5495 71.3673 13.8921 76.0014C9.12049 84.337 10.9434 94.335 17.9469 98.344C21.0527 100.128 24.6494 100.412 28.1151 99.4731C32.4645 98.2851 36.5946 95.1466 39.2488 90.5223C40.4106 88.4802 41.1797 86.3431 41.5724 84.2191V84.2224C41.5757 84.206 41.5757 84.1897 41.592 84.1733C41.6149 83.9966 41.6476 83.8199 41.664 83.6268C43.6342 70.4084 47.3585 63.6569 49.993 60.3777C52.634 63.6569 56.3616 70.4052 58.3285 83.6268C58.3481 83.8199 58.3809 83.9966 58.3972 84.1733C58.4103 84.1897 58.4103 84.206 58.4169 84.2224V84.2191C58.8129 86.3398 59.5787 88.4802 60.7372 90.5223C63.3946 95.1466 67.5247 98.2851 71.8774 99.4731C75.3432 100.412 78.9398 100.128 82.0522 98.344C89.059 94.335 90.8753 84.3402 86.107 76.0047ZM32.4351 86.6213C30.9296 89.2492 28.5438 91.2292 26.0599 91.9067C24.9537 92.2077 23.3305 92.391 21.8414 91.5368C18.6669 89.7205 18.1465 84.3828 20.709 79.8992C22.2407 77.2418 24.561 75.3076 27.0908 74.6171C28.1871 74.3193 29.8104 74.1393 31.306 74.9869C34.4838 76.8098 35.0008 82.1344 32.4351 86.6213ZM78.1544 91.5368C76.6653 92.3943 75.0486 92.2077 73.9425 91.9067C71.4552 91.2292 69.0727 89.2492 67.564 86.6213C65.0015 82.1344 65.5186 76.8098 68.6963 74.9869C70.192 74.136 71.8152 74.3193 72.9148 74.6171C75.4381 75.3076 77.7649 77.2418 79.2867 79.8992C81.8492 84.3828 81.3322 89.7205 78.1544 91.5368Z" fill="#151B29"/>
</svg>
