<svg width="100" height="100" viewBox="0 0 100 100" fill="none" xmlns="http://www.w3.org/2000/svg">
<g clip-path="url(#clip0_117_756)">
<path d="M99.0397 22.9916L75.0088 -1.03973C74.3936 -1.65455 73.5599 -2 72.6902 -2C71.8205 -2 70.9869 -1.65455 70.3717 -1.03973L65.9869 3.34512L64.1384 1.49663C63.2418 0.600674 61.7889 0.600674 60.8923 1.49663C59.996 2.39327 59.996 3.84613 60.8923 4.74276L62.7407 6.59125L57.9761 11.3559L56.1273 9.50707C55.2313 8.61111 53.7781 8.61077 52.8815 9.50741C51.9852 10.4037 51.9852 11.8569 52.8818 12.7532L54.7303 14.6017L49.9657 19.3663L48.1172 17.5178C47.2205 16.6219 45.7677 16.6219 44.871 17.5178C43.9748 18.4145 43.9748 19.8673 44.871 20.764L46.7195 22.6125L41.9552 27.3768L40.1067 25.5283C39.2101 24.6323 37.7572 24.6323 36.8606 25.5283C35.9643 26.4249 35.9643 27.8778 36.8606 28.7744L38.7091 30.6229L33.9448 35.3872L32.0963 33.5387C31.1997 32.6428 29.7468 32.6428 28.8502 33.5387C27.9539 34.4354 27.9539 35.8882 28.8502 36.7849L30.6987 38.6333L26.3138 43.0182C25.0333 44.2987 25.0333 46.3747 26.3138 47.6552L30.2559 51.5973L3.34343 78.5098C1.18754 80.6657 0 83.533 0 86.5825C0 89.6327 1.18754 92.4997 3.34411 94.6559C5.50067 96.8121 8.36768 98 11.4175 98C14.4673 98 17.3347 96.8125 19.4909 94.6559L46.4034 67.7434L50.3455 71.6855C50.9859 72.3256 51.8246 72.6458 52.664 72.6458C53.5034 72.6458 54.3421 72.3256 54.9825 71.6855L59.3673 67.3007L60.8923 68.8256C61.3404 69.2734 61.9279 69.4977 62.5152 69.4977C63.1024 69.4977 63.6899 69.2734 64.1381 68.8256C65.0343 67.929 65.0343 66.4761 64.1381 65.5795L62.6131 64.0546L67.3774 59.2902L68.9024 60.8152C69.3505 61.263 69.938 61.4872 70.5253 61.4872C71.1125 61.4872 71.7 61.263 72.1481 60.8152C73.0444 59.9185 73.0444 58.4657 72.1481 57.569L70.6232 56.0441L75.3875 51.2798L76.9125 52.8047C77.3606 53.2525 77.9482 53.4768 78.5354 53.4768C79.1226 53.4768 79.7101 53.2525 80.1583 52.8047C81.0546 51.9081 81.0546 50.4552 80.1583 49.5586L78.6333 48.0337L83.3976 43.2694L84.9226 44.7943C85.3707 45.2421 85.9583 45.4663 86.5455 45.4663C87.1327 45.4663 87.7202 45.2421 88.1684 44.7943C89.0646 43.8976 89.0646 42.4448 88.1684 41.5481L86.6434 40.0232L91.4077 35.2589L92.9327 36.7838C93.3808 37.2317 93.9683 37.4559 94.5556 37.4559C95.1428 37.4559 95.7303 37.2317 96.1785 36.7838C97.0748 35.8872 97.0748 34.4343 96.1785 33.5377L94.6535 32.0128L99.0384 27.6279C100.32 26.3482 100.32 24.2721 99.0397 22.9916ZM14.8539 90.0192C12.9589 91.9141 9.87609 91.9141 7.98047 90.0192C7.06296 89.1013 6.55724 87.8811 6.55724 86.5825C6.55724 85.2845 7.06296 84.064 7.98081 83.1458L34.8933 56.2333L41.7663 63.1064L14.8539 90.0192ZM52.664 64.7303L33.2697 45.336L72.6902 5.91549L92.0845 25.3101L52.664 64.7303Z" fill="#151B29"/>
<path d="M73.0697 26.9305C73.5179 27.3783 74.1054 27.6025 74.6926 27.6025C75.2798 27.6025 75.8674 27.3783 76.3155 26.9305L80.3206 22.9254C81.2169 22.0288 81.2169 20.5759 80.3206 19.6793C79.4239 18.7833 77.9711 18.7833 77.0744 19.6793L73.0694 23.6843C72.1734 24.581 72.1734 26.0342 73.0697 26.9305Z" fill="#151B29"/>
<path d="M62.6773 39.6182C63.2645 39.6182 63.852 39.3939 64.3002 38.9461L68.3052 34.941C69.2015 34.0444 69.2015 32.5916 68.3052 31.6949C67.4086 30.799 65.9557 30.799 65.0591 31.6949L61.0541 35.7C60.1578 36.5966 60.1578 38.0495 61.0541 38.9461C61.5025 39.3939 62.0901 39.6182 62.6773 39.6182Z" fill="#151B29"/>
<path d="M56.2896 46.9567C57.1859 46.06 57.1859 44.6072 56.2896 43.7105C55.393 42.8146 53.9401 42.8146 53.0435 43.7105L49.0384 47.7156C48.1421 48.6122 48.1421 50.0651 49.0384 50.9617C49.4866 51.4095 50.0741 51.6338 50.6613 51.6338C51.2485 51.6338 51.8361 51.4095 52.2842 50.9617L56.2896 46.9567Z" fill="#151B29"/>
<path d="M79.3809 29.9962L75.3758 34.0012C74.4795 34.8979 74.4795 36.3507 75.3758 37.2474C75.824 37.6952 76.4115 37.9194 76.9987 37.9194C77.5859 37.9194 78.1735 37.6952 78.6216 37.2474L82.6267 33.2423C83.523 32.3457 83.523 30.8928 82.6267 29.9962C81.7304 29.1002 80.2775 29.1002 79.3809 29.9962Z" fill="#151B29"/>
<path d="M67.3653 42.0113L63.3602 46.0164C62.4639 46.913 62.4639 48.3659 63.3602 49.2625C63.8084 49.7103 64.3959 49.9346 64.9831 49.9346C65.5703 49.9346 66.1579 49.7103 66.606 49.2625L70.6111 45.2575C71.5073 44.3608 71.5073 42.908 70.6111 42.0113C69.7148 41.1154 68.2616 41.1154 67.3653 42.0113Z" fill="#151B29"/>
<path d="M55.3496 54.027L51.3446 58.032C50.4483 58.9286 50.4483 60.3815 51.3446 61.2781C51.7927 61.7259 52.3803 61.9502 52.9675 61.9502C53.5547 61.9502 54.1422 61.7259 54.5904 61.2781L58.5954 57.2731C59.4917 56.3764 59.4917 54.9236 58.5954 54.027C57.6991 53.131 56.2463 53.131 55.3496 54.027Z" fill="#151B29"/>
<path d="M64.3765 25.2969C64.9637 25.2969 65.5513 25.0726 65.9994 24.6248L70.0045 20.6198C70.9008 19.7231 70.9008 18.2703 70.0045 17.3736C69.1078 16.4777 67.655 16.4777 66.7583 17.3736L62.7533 21.3787C61.857 22.2753 61.857 23.7282 62.7533 24.6248C63.2018 25.0726 63.7893 25.2969 64.3765 25.2969Z" fill="#151B29"/>
<path d="M52.3605 37.312C52.9478 37.312 53.5353 37.0878 53.9834 36.6399L57.9885 32.6349C58.8848 31.7383 58.8848 30.2854 57.9885 29.3888C57.0919 28.4928 55.639 28.4928 54.7424 29.3888L50.7377 33.3938C49.8414 34.2904 49.8414 35.7433 50.7377 36.6399C51.1858 37.0878 51.7733 37.312 52.3605 37.312Z" fill="#151B29"/>
<path d="M45.9732 41.4044C45.0766 40.5084 43.6237 40.5084 42.7271 41.4044L38.722 45.4094C37.8257 46.3061 37.8257 47.7589 38.722 48.6556C39.1702 49.1034 39.7577 49.3276 40.3449 49.3276C40.9321 49.3276 41.5197 49.1034 41.9678 48.6556L45.9729 44.6505C46.8695 43.7539 46.8695 42.301 45.9732 41.4044Z" fill="#151B29"/>
<path d="M70.8282 31.6275C71.4319 31.6275 72.0251 31.3847 72.451 30.9554C72.8773 30.5292 73.1231 29.9356 73.1231 29.3325C73.1231 28.7292 72.8773 28.1393 72.451 27.7096C72.0248 27.2834 71.4315 27.0376 70.8282 27.0376C70.2248 27.0376 69.6315 27.2834 69.2056 27.7096C68.779 28.1359 68.5332 28.7295 68.5332 29.3325C68.5332 29.9389 68.779 30.5295 69.2056 30.9554C69.6315 31.3847 70.2251 31.6275 70.8282 31.6275Z" fill="#151B29"/>
<path d="M58.6909 39.1753C58.0876 39.1753 57.4977 39.4211 57.0681 39.8473C56.6418 40.2736 56.396 40.8669 56.396 41.4702C56.396 42.0766 56.6418 42.6669 57.0681 43.0928C57.4977 43.5194 58.0879 43.7652 58.6909 43.7652C59.2973 43.7652 59.8879 43.5194 60.3138 43.0928C60.7431 42.6665 60.9859 42.0733 60.9859 41.4702C60.9859 40.8665 60.7431 40.2733 60.3138 39.8473C59.8876 39.4211 59.2973 39.1753 58.6909 39.1753Z" fill="#151B29"/>
<path d="M46.5567 51.3125C45.9499 51.3125 45.3597 51.5553 44.9338 51.9846C44.5041 52.4108 44.2617 53.0011 44.2617 53.6075C44.2617 54.2108 44.5041 54.8044 44.9338 55.2303C45.36 55.6566 45.9499 55.9024 46.5567 55.9024C47.16 55.9024 47.7499 55.6566 48.1762 55.2303C48.6058 54.8041 48.852 54.2105 48.852 53.6075C48.852 53.0044 48.6062 52.4105 48.1762 51.9846C47.7499 51.5553 47.1597 51.3125 46.5567 51.3125Z" fill="#151B29"/>
<path d="M48.4971 41.3388C49.1005 41.3388 49.6904 41.093 50.12 40.6667C50.5463 40.2371 50.792 39.6469 50.792 39.0438C50.792 38.4405 50.5463 37.8469 50.12 37.4176C49.6934 36.9913 49.1001 36.7485 48.4971 36.7485C47.8941 36.7485 47.3001 36.9913 46.8742 37.4176C46.4479 37.8469 46.2021 38.4374 46.2021 39.0438C46.2021 39.6472 46.4479 40.2371 46.8742 40.6667C47.3035 41.093 47.8941 41.3388 48.4971 41.3388Z" fill="#151B29"/>
<path d="M60.3926 29.4434C60.996 29.4434 61.5859 29.1976 62.0152 28.7714C62.4418 28.3421 62.6876 27.7515 62.6876 27.1485C62.6876 26.5451 62.4418 25.9518 62.0152 25.5256C61.5859 25.0963 60.9956 24.8535 60.3926 24.8535C59.7859 24.8535 59.1956 25.0963 58.7697 25.5256C58.3401 25.9522 58.0977 26.5421 58.0977 27.1485C58.0977 27.7518 58.3401 28.3454 58.7697 28.7714C59.1956 29.1976 59.7859 29.4434 60.3926 29.4434Z" fill="#151B29"/>
<path d="M72.5269 17.3062C73.1333 17.3062 73.7235 17.0604 74.1498 16.6342C74.5791 16.2076 74.8218 15.6143 74.8218 15.0113C74.8218 14.4082 74.5791 13.8177 74.1498 13.3884C73.7232 12.9621 73.1299 12.7163 72.5269 12.7163C71.9235 12.7163 71.3333 12.9621 70.904 13.3884C70.4777 13.8146 70.2319 14.4082 70.2319 15.0113C70.2319 15.6177 70.4777 16.2079 70.904 16.6342C71.3333 17.0604 71.9235 17.3062 72.5269 17.3062Z" fill="#151B29"/>
<path d="M61.1201 49.3716C60.5134 49.3716 59.9232 49.6143 59.4972 50.0436C59.068 50.4699 58.8252 51.0601 58.8252 51.6665C58.8252 52.2699 59.068 52.8598 59.4972 53.2861C59.9235 53.7157 60.5134 53.9618 61.1201 53.9618C61.7235 53.9618 62.3168 53.716 62.743 53.2861C63.1693 52.8598 63.4151 52.2699 63.4151 51.6665C63.4151 51.0601 63.1693 50.4696 62.743 50.0436C62.3168 49.6143 61.7235 49.3716 61.1201 49.3716Z" fill="#151B29"/>
<path d="M73.0154 37.4766C72.4087 37.4766 71.8154 37.7193 71.3888 38.1486C70.9626 38.5752 70.7168 39.1685 70.7168 39.7715C70.7168 40.3749 70.9626 40.9651 71.3888 41.3944C71.8154 41.8207 72.4087 42.0665 73.0154 42.0665C73.6188 42.0665 74.2087 41.8207 74.635 41.3944C75.0646 40.9651 75.307 40.3745 75.307 39.7715C75.307 39.1651 75.0646 38.5749 74.635 38.1486C74.2087 37.7193 73.6188 37.4766 73.0154 37.4766Z" fill="#151B29"/>
<path d="M86.7728 26.0109C86.3462 25.5847 85.7563 25.3389 85.1499 25.3389C84.5466 25.3389 83.953 25.5847 83.527 26.0109C83.1008 26.4372 82.855 27.0308 82.855 27.6338C82.855 28.2372 83.1008 28.8305 83.527 29.2567C83.9533 29.683 84.5469 29.9288 85.1499 29.9288C85.7563 29.9288 86.3466 29.683 86.7728 29.2567C87.2021 28.8301 87.4449 28.2368 87.4449 27.6338C87.4449 27.0308 87.2025 26.4372 86.7728 26.0109Z" fill="#151B29"/>
</g>
<defs>
<clipPath id="clip0_117_756">
<rect width="100" height="100" fill="white"/>
</clipPath>
</defs>
</svg>
