<svg width="27" height="29" viewBox="0 0 27 29" fill="none" xmlns="http://www.w3.org/2000/svg">
<path fill-rule="evenodd" clip-rule="evenodd" d="M13.5301 0C9.96979 0 6.72554 1.176 4.80627 2.13682C4.63286 2.22352 4.47128 2.30865 4.32074 2.39062C4.02279 2.55299 3.76899 2.70433 3.56721 2.83753L5.75054 6.05183L6.77835 6.4609C10.795 8.48738 16.1816 8.48738 20.1991 6.4609L21.3656 5.85556L23.4307 2.83753C23.0029 2.5585 22.558 2.30657 22.0987 2.08322C20.1896 1.13265 17.0234 0 13.5301 0ZM8.45171 3.63835C7.67858 3.49367 6.91497 3.30205 6.16513 3.06453C7.96302 2.26608 10.6429 1.41877 13.5293 1.41877C15.529 1.41877 17.4199 1.82548 18.9837 2.34096C17.1511 2.59871 15.1956 3.03616 13.3323 3.5745C11.8662 3.99856 10.1527 3.95284 8.45171 3.63835ZM21.0314 7.62981L20.8383 7.72755C16.4189 9.95659 10.5578 9.95659 6.13833 7.72755L5.95547 7.63454C-0.68278 14.9183 -5.75093 28.373 13.5301 28.373C32.8096 28.373 27.6177 14.6669 21.0314 7.62981ZM12.7104 14.1877C12.2923 14.1877 11.8913 14.3537 11.5957 14.6494C11.3001 14.945 11.134 15.346 11.134 15.7641C11.134 16.1822 11.3001 16.5831 11.5957 16.8788C11.8913 17.1744 12.2923 17.3405 12.7104 17.3405V14.1877ZM14.2868 12.6113V11.8231H12.7104V12.6113C11.8742 12.6113 11.0723 12.9434 10.481 13.5347C9.88973 14.126 9.55756 14.9279 9.55756 15.7641C9.55756 16.6002 9.88973 17.4022 10.481 17.9934C11.0723 18.5847 11.8742 18.9169 12.7104 18.9169V22.0697C12.3844 22.0698 12.0663 21.9688 11.8001 21.7806C11.5339 21.5925 11.3325 21.3264 11.2238 21.019C11.1542 20.8219 11.0091 20.6605 10.8205 20.5703C10.6319 20.4802 10.4152 20.4686 10.2181 20.5382C10.0209 20.6078 9.85954 20.7529 9.76938 20.9415C9.67921 21.1301 9.66766 21.3468 9.73727 21.544C9.95469 22.1587 10.3573 22.691 10.8898 23.0675C11.4222 23.4439 12.0583 23.6461 12.7104 23.6461V24.4343H14.2868V23.6461C15.123 23.6461 15.9249 23.3139 16.5162 22.7227C17.1074 22.1314 17.4396 21.3295 17.4396 20.4933C17.4396 19.6571 17.1074 18.8552 16.5162 18.2639C15.9249 17.6726 15.123 17.3405 14.2868 17.3405V14.1877C14.9725 14.1877 15.5566 14.6251 15.7741 15.2383C15.8064 15.3387 15.8585 15.4315 15.9272 15.5114C15.996 15.5912 16.0801 15.6565 16.1746 15.7032C16.269 15.75 16.3719 15.7774 16.4771 15.7837C16.5823 15.7901 16.6877 15.7752 16.787 15.7401C16.8864 15.705 16.9777 15.6503 17.0556 15.5793C17.1335 15.5083 17.1963 15.4224 17.2404 15.3267C17.2845 15.2309 17.3089 15.1273 17.3123 15.022C17.3156 14.9167 17.2978 14.8117 17.2599 14.7134C17.0425 14.0986 16.6398 13.5664 16.1074 13.1899C15.5749 12.8134 14.9389 12.6113 14.2868 12.6113ZM14.2868 18.9169V22.0697C14.7049 22.0697 15.1058 21.9036 15.4015 21.608C15.6971 21.3123 15.8632 20.9114 15.8632 20.4933C15.8632 20.0752 15.6971 19.6742 15.4015 19.3786C15.1058 19.083 14.7049 18.9169 14.2868 18.9169Z" fill="white"/>
</svg>
