<svg width="173" height="344" viewBox="0 0 173 344" fill="none" xmlns="http://www.w3.org/2000/svg">
<path d="M175.844 343.191C180.177 341.742 184.095 337.361 184.999 332.942C186.765 324.435 178.251 315.939 169.747 317.723C163.349 319.051 158.401 325.58 159.027 331.731C159.486 336.066 162.752 340.522 166.883 342.54C169.403 343.735 173.285 344.02 175.844 343.191Z" fill="#0D1921"/>
<path d="M122.995 343.248C127.328 341.798 131.246 337.417 132.15 332.999C133.916 324.491 125.401 315.995 116.898 317.779C110.5 319.107 105.552 325.636 106.178 331.788C106.637 336.122 109.903 340.578 114.034 342.597C116.554 343.791 120.436 344.076 122.995 343.248Z" fill="#0D1921"/>
<path d="M70.1459 343.304C74.4796 341.854 78.3973 337.474 79.3009 333.055C81.0673 324.548 72.5528 316.051 64.0494 317.836C57.6511 319.164 52.7035 325.693 53.3293 331.844C53.7881 336.179 57.0547 340.634 61.1856 342.653C63.7055 343.848 67.5869 344.133 70.1459 343.304Z" fill="#0D1921"/>
<path d="M17.2968 343.36C21.6305 341.911 25.5482 337.53 26.4518 333.111C28.2181 324.604 19.7037 316.108 11.2002 317.892C4.80197 319.22 -0.145659 325.749 0.480222 331.9C0.939014 336.235 4.20554 340.691 8.33651 342.709C10.8564 343.904 14.7378 344.189 17.2968 343.36Z" fill="#0D1921"/>
<path d="M175.787 290.342C180.121 288.893 184.038 284.512 184.942 280.093C186.708 271.586 178.194 263.09 169.69 264.874C163.292 266.202 158.345 272.731 158.97 278.882C159.429 283.217 162.696 287.673 166.827 289.691C169.347 290.886 173.228 291.171 175.787 290.342Z" fill="#0D1921"/>
<path d="M122.938 290.399C127.272 288.949 131.19 284.568 132.093 280.15C133.86 271.642 125.345 263.146 116.842 264.931C110.444 266.259 105.496 272.787 106.122 278.939C106.581 283.273 109.847 287.729 113.978 289.748C116.498 290.942 120.379 291.227 122.938 290.399Z" fill="#0D1921"/>
<path d="M70.0892 290.455C74.423 289.005 78.3407 284.625 79.2443 280.206C81.0106 271.699 72.4962 263.202 63.9927 264.987C57.5945 266.315 52.6468 272.844 53.2727 278.995C53.7315 283.33 56.998 287.785 61.129 289.804C63.6489 290.999 67.5303 291.284 70.0892 290.455Z" fill="#0D1921"/>
<path d="M17.2406 290.511C21.5743 289.062 25.492 284.681 26.3957 280.262C28.162 271.755 19.6476 263.259 11.1441 265.043C4.74582 266.371 -0.201812 272.9 0.42407 279.051C0.882862 283.386 4.14938 287.842 8.28036 289.86C10.8002 291.055 14.6816 291.34 17.2406 290.511Z" fill="#0D1921"/>
<path d="M175.731 237.494C180.065 236.044 183.982 231.663 184.886 227.244C186.652 218.737 178.138 210.241 169.634 212.025C163.236 213.353 158.288 219.882 158.914 226.033C159.373 230.368 162.64 234.824 166.771 236.843C169.29 238.037 173.172 238.322 175.731 237.494Z" fill="#0D1921"/>
<path d="M122.882 237.55C127.216 236.1 131.134 231.719 132.037 227.301C133.804 218.793 125.289 210.297 116.786 212.082C110.387 213.41 105.44 219.938 106.066 226.09C106.524 230.424 109.791 234.88 113.922 236.899C116.442 238.093 120.323 238.378 122.882 237.55Z" fill="#0D1921"/>
<path d="M70.0331 237.606C74.3668 236.157 78.2845 231.776 79.1882 227.357C80.9545 218.85 72.44 210.353 63.9366 212.138C57.5383 213.466 52.5907 219.995 53.2166 226.146C53.6753 230.481 56.9419 234.936 61.0728 236.955C63.5927 238.15 67.4741 238.435 70.0331 237.606Z" fill="#0D1921"/>
<path d="M17.184 237.663C21.5177 236.213 25.4354 231.832 26.339 227.413C28.1054 218.906 19.5909 210.41 11.0874 212.194C4.68918 213.522 -0.258452 220.051 0.36743 226.202C0.826221 230.537 4.09274 234.993 8.22372 237.012C10.7436 238.206 14.625 238.491 17.184 237.663Z" fill="#0D1921"/>
<path d="M175.674 184.645C181.907 182.574 186.111 175.715 184.824 169.689C183.787 164.776 179.199 160.198 174.285 159.171C166.314 157.487 158.023 165.052 158.858 173.184C159.317 177.519 162.583 181.975 166.714 183.994C169.234 185.188 173.115 185.473 175.674 184.645Z" fill="#0D1921"/>
<path d="M122.826 184.701C129.058 182.63 133.262 175.772 131.976 169.745C130.938 164.833 126.35 160.255 121.436 159.228C113.466 157.543 105.175 165.108 106.009 173.241C106.468 177.576 109.734 182.031 113.865 184.05C116.385 185.245 120.267 185.53 122.826 184.701Z" fill="#0D1921"/>
<path d="M69.9764 184.757C74.3102 183.308 78.2279 178.927 79.1315 174.508C80.8978 166.001 72.3834 157.505 63.8799 159.289C57.4817 160.617 52.534 167.146 53.1599 173.297C53.6187 177.632 56.8852 182.088 61.0162 184.106C63.5361 185.301 67.4175 185.586 69.9764 184.757Z" fill="#0D1921"/>
<path d="M17.1278 184.814C21.4615 183.364 25.3792 178.983 26.2829 174.564C28.0492 166.057 19.5348 157.561 11.0313 159.345C4.63303 160.673 -0.314605 167.202 0.311277 173.353C0.770069 177.688 4.03659 182.144 8.16757 184.163C10.6874 185.357 14.5688 185.642 17.1278 184.814Z" fill="#0D1921"/>
<path d="M175.618 131.796C181.851 129.725 186.055 122.866 184.768 116.84C183.731 111.927 179.143 107.349 174.229 106.322C166.258 104.638 157.967 112.203 158.802 120.336C159.26 124.67 162.527 129.126 166.658 131.145C169.178 132.339 173.059 132.624 175.618 131.796Z" fill="#0D1921"/>
<path d="M122.769 131.852C129.001 129.781 133.205 122.923 131.919 116.896C130.882 111.984 126.294 107.406 121.379 106.379C113.409 104.694 105.118 112.259 105.953 120.392C106.411 124.727 109.678 129.182 113.809 131.201C116.329 132.396 120.21 132.681 122.769 131.852Z" fill="#0D1921"/>
<path d="M69.9203 131.909C74.254 130.459 78.1717 126.078 79.0754 121.659C80.8417 113.152 72.3272 104.656 63.8238 106.44C57.4255 107.768 52.4779 114.297 53.1038 120.448C53.5625 124.783 56.8291 129.239 60.96 131.257C63.4799 132.452 67.3613 132.737 69.9203 131.909Z" fill="#0D1921"/>
<path d="M17.0717 131.965C21.4054 130.515 25.3231 126.134 26.2267 121.716C27.9931 113.208 19.4786 104.712 10.9751 106.496C4.57687 107.824 -0.370757 114.353 0.255125 120.505C0.713917 124.839 3.98044 129.295 8.11142 131.314C10.6313 132.508 14.5127 132.793 17.0717 131.965Z" fill="#0D1921"/>
<path d="M175.562 78.9469C179.896 77.4971 183.813 73.1164 184.717 68.6976C186.483 60.1903 177.969 51.694 169.465 53.4785C163.067 54.8065 158.119 61.3354 158.745 67.4866C159.204 71.8214 162.471 76.2771 166.602 78.2958C169.122 79.4905 173.003 79.7753 175.562 78.9469Z" fill="#0D1921"/>
<path d="M122.713 79.0032C127.046 77.5535 130.964 73.1728 131.868 68.754C133.634 60.2467 125.12 51.7504 116.616 53.5349C110.218 54.8629 105.27 61.3918 105.896 67.543C106.355 71.8778 109.622 76.3335 113.753 78.3522C116.272 79.5469 120.154 79.8317 122.713 79.0032Z" fill="#0D1921"/>
<path d="M69.8641 79.0595C74.1979 77.6098 78.1156 73.2291 79.0192 68.8103C80.7855 60.303 72.2711 51.8067 63.7676 53.5912C57.3694 54.9192 52.4217 61.448 53.0476 67.5993C53.5064 71.9341 56.7729 76.3897 60.9039 78.4085C63.4238 79.6031 67.3052 79.888 69.8641 79.0595Z" fill="#0D1921"/>
<path d="M17.015 79.1159C21.3487 77.6662 25.2665 73.2855 26.1701 68.8667C27.9364 60.3594 19.422 51.8631 10.9185 53.6476C4.52023 54.9756 -0.427398 61.5044 0.198484 67.6557C0.657276 71.9905 3.9238 76.4461 8.05478 78.4649C10.5746 79.6595 14.456 79.9444 17.015 79.1159Z" fill="#0D1921"/>
<path d="M175.505 26.098C179.839 24.6483 183.757 20.2675 184.66 15.8487C186.427 7.34147 177.912 -1.15483 169.409 0.629627C163.01 1.95767 158.063 8.48649 158.689 14.6378C159.148 18.9725 162.414 23.4282 166.545 25.4469C169.065 26.6416 172.946 26.9265 175.505 26.098Z" fill="#0D1921"/>
<path d="M122.657 26.1543C126.99 24.7045 130.908 20.3238 131.812 15.905C133.578 7.39774 125.064 -1.09856 116.56 0.685901C110.162 2.01395 105.214 8.54276 105.84 14.694C106.299 19.0288 109.565 23.4845 113.696 25.5032C116.216 26.6979 120.098 26.9827 122.657 26.1543Z" fill="#0D1921"/>
<path d="M69.808 26.2108C74.1417 24.7611 78.0594 20.3803 78.9631 15.9615C80.7294 7.45426 72.2149 -1.04204 63.7115 0.74242C57.3132 2.07046 52.3656 8.59928 52.9915 14.7506C53.4502 19.0853 56.7168 23.541 60.8477 25.5597C63.3676 26.7544 67.249 27.0393 69.808 26.2108Z" fill="#0D1921"/>
<path d="M16.9589 26.267C21.2926 24.8173 25.2103 20.4366 26.1139 16.0178C27.8803 7.51054 19.3658 -0.985766 10.8623 0.798694C4.46408 2.12674 -0.48355 8.65556 0.142332 14.8068C0.601124 19.1416 3.86765 23.5973 7.99862 25.616C10.5185 26.8107 14.3999 27.0955 16.9589 26.267Z" fill="#0D1921"/>
</svg>
