<svg width="24" height="34" viewBox="0 0 24 34" fill="none" xmlns="http://www.w3.org/2000/svg">
<path d="M17.856 28.1346L17.376 30.2185C17.1969 30.9907 16.776 31.6856 16.1747 32.202C15.5734 32.7185 14.8229 33.0297 14.0326 33.0902L13.7462 33.1018H10.2521C9.45906 33.1018 8.68669 32.8486 8.0475 32.3791C7.40832 31.9096 6.9357 31.2484 6.69848 30.4916L6.62235 30.2152L6.14235 28.1346H17.856ZM12 0C15.1826 0 18.2348 1.26428 20.4853 3.51472C22.7357 5.76516 24 8.8174 24 12C24 15.5354 22.4508 18.7746 19.4235 21.6662C19.3649 21.7222 19.324 21.7941 19.3059 21.8731L18.432 25.6519H5.568L4.69738 21.8731C4.67901 21.7947 4.63817 21.7234 4.57986 21.6679C1.5509 18.7746 0 15.5354 0 11.9983C0.000438939 8.81603 1.26491 5.76421 3.5153 3.51413C5.76569 1.26405 8.81769 -3.02717e-08 12 0Z" fill="white"/>
</svg>
