<svg width="77" height="77" viewBox="0 0 77 77" fill="none" xmlns="http://www.w3.org/2000/svg">
<path d="M38.5 0C17.6292 0 0 17.6292 0 38.5C0 59.3708 17.6292 77 38.5 77C59.3708 77 77 59.3708 77 38.5C77 17.6292 59.3708 0 38.5 0ZM38.5 19.25C45.1489 19.25 50.05 24.1472 50.05 30.8C50.05 37.4528 45.1489 42.35 38.5 42.35C31.8549 42.35 26.95 37.4528 26.95 30.8C26.95 24.1472 31.8549 19.25 38.5 19.25ZM18.8419 56.8722C22.2953 51.7902 28.0549 48.4022 34.65 48.4022H42.35C48.9489 48.4022 54.7047 51.7902 58.1581 56.8722C53.2378 62.139 46.2577 65.45 38.5 65.45C30.7422 65.45 23.7622 62.139 18.8419 56.8722Z" fill="#D9D9D9"/>
</svg>
