<svg width="75" height="60" viewBox="0 0 75 60" fill="none" xmlns="http://www.w3.org/2000/svg">
<g clip-path="url(#clip0_295_606)">
<path d="M15.2353 0.617489C9.64705 1.44102 4.58823 3.85278 1.5294 7.1469C0.235286 8.58808 -0.0294199 9.70573 0.617639 10.941C1.55882 12.7057 7.47058 21.3822 8.0294 21.8234C9.08823 22.6763 10.5 22.4998 11.5294 21.3822C12.9706 19.8822 21.8529 3.29396 21.8235 2.23514C21.7647 0.382195 19.9118 -0.0589828 15.2353 0.617489Z" fill="#EC994B"/>
<path d="M55.9706 1.14687C53.6765 2.58804 53.7648 4.08804 56.3824 8.97039C57.5295 11.088 59.1471 14.1175 60.0001 15.7351C60.853 17.3527 61.8236 19.0292 62.1177 19.4998C63.2648 21.1469 65.7059 21.6763 67.5589 20.6469C68.5295 20.1469 73.1471 13.7645 74.0001 11.7939C74.9412 9.52922 74.2059 7.64687 71.5295 5.58804C68.0295 2.88216 63.3824 1.08804 59.0001 0.7351C57.2353 0.588041 56.7648 0.646866 55.9706 1.14687Z" fill="#EC994B"/>
<path d="M22.4411 17.0295C21.2647 17.7648 20.8823 18.4707 20.8823 20.0001C20.8823 21.0001 21.0588 21.4119 21.8823 22.2354C23.7647 24.1178 26.647 23.4119 27.3823 20.8825C28.2647 17.9707 25 15.4119 22.4411 17.0295Z" fill="#EC994B"/>
<path d="M48.0588 17.7648C47.2941 18.5295 47.0588 19.0001 47.0588 19.8236C47.0588 21.3825 47.7353 22.4707 49.0883 23.0589C50.5 23.706 51.5588 23.5295 52.7059 22.4413C54.9412 20.3236 53.4706 16.7648 50.3824 16.7648C49.2647 16.7648 48.9118 16.9119 48.0588 17.7648Z" fill="#EC994B"/>
<path d="M58.353 28.3529C57.5 28.7353 57.4412 28.9118 57.2648 30.6176C56.8236 34.7059 53.8236 38.7647 49.7942 40.6765C47.9118 41.5588 47.6177 41.6176 44.4118 41.6176C41.5589 41.6176 40.8236 41.5294 39.6471 40.9706L38.2942 40.3529L36.8236 41.7647C33.9706 44.5 29.4706 45.9706 25.8236 45.3235C22.1177 44.6765 18.7059 42.4706 16.7647 39.4118C14.0295 35.1471 7.1471 36.1765 5.47063 41.0882C4.58827 43.6765 5.00004 45.7059 6.76475 47.7353L7.94122 49.0588L7.35298 50.3235C4.47063 56.6765 12.353 62.5588 17.6471 58.0294C18.2942 57.4706 19.1177 56.4412 19.4412 55.7647C20.1765 54.3235 21.5883 52.7647 22.7647 52.1471C23.2059 51.9118 27.9118 50.9412 33.2059 49.9706C38.4706 49.0294 45.1177 47.8235 47.9412 47.3235C52.9706 46.4118 53.1177 46.3823 54.7353 46.8529C55.7353 47.1471 56.8824 47.7647 57.6765 48.4706C59.6471 50.2059 60.7648 50.6765 62.8236 50.6765C64.6765 50.6765 65.3824 50.4118 67.0295 49.1765C68.2648 48.2353 69.4118 45.8529 69.4118 44.1176C69.4118 42.5294 68.3236 40.0588 67.2648 39.2059L66.5001 38.6176L67.0589 37.0882C67.8824 34.9706 67.8236 33.3823 66.853 31.4412C65.6471 29.0882 64.0883 28.1176 61.3824 28.0294C60.0295 27.9706 58.9412 28.0882 58.353 28.3529Z" fill="#EC994B"/>
<path d="M32.4117 29.1766C31.9117 29.6766 31.9706 31.6177 32.5 32.6471C32.7353 33.1177 33.3529 33.7942 33.8823 34.1766C34.7059 34.7648 35.2059 34.853 37.2647 34.853C39.2353 34.853 39.7941 34.7354 40.4706 34.2354C41.7647 33.2648 42.3823 32.2648 42.4412 30.9707C42.5 28.9119 42.2941 28.8236 37.2353 28.8236C34.147 28.8236 32.647 28.9413 32.4117 29.1766Z" fill="#EC994B"/>
<path d="M45.5881 35.1472C45.5881 35.3825 45.8528 35.5884 46.1764 35.5884C46.4999 35.5884 46.7646 35.3825 46.7646 35.1472C46.7646 34.9119 46.4999 34.706 46.1764 34.706C45.8528 34.706 45.5881 34.9119 45.5881 35.1472Z" fill="#EC994B"/>
<path d="M49.1177 36.3236C49.1177 36.6177 49.3236 36.7648 49.6471 36.706C50.2647 36.5883 50.2059 36.0589 49.5883 35.9413C49.2941 35.8824 49.1177 36.0295 49.1177 36.3236Z" fill="#EC994B"/>
<path d="M28.8235 37.4706C28.8235 37.7059 28.9411 37.9706 29.0882 38.0588C29.4117 38.2647 30.0588 37.5294 29.7941 37.2647C29.4411 36.9118 28.8235 37.0588 28.8235 37.4706Z" fill="#EC994B"/>
<path d="M44.7058 38.5294C44.7058 38.853 44.9117 39.1177 45.147 39.1177C45.3823 39.1177 45.5882 38.853 45.5882 38.5294C45.5882 38.2059 45.3823 37.9412 45.147 37.9412C44.9117 37.9412 44.7058 38.2059 44.7058 38.5294Z" fill="#EC994B"/>
<path d="M31.5883 39.7353C31.2942 40.2353 31.9706 40.7941 32.3824 40.3824C32.7353 40.0294 32.5 39.4118 32.0589 39.4118C31.9118 39.4118 31.7059 39.5588 31.5883 39.7353Z" fill="#EC994B"/>
<path d="M26.5883 40.0293C26.2942 40.5293 26.9706 41.0881 27.3824 40.6763C27.7353 40.3234 27.5 39.7057 27.0589 39.7057C26.9118 39.7057 26.7059 39.8528 26.5883 40.0293Z" fill="#EC994B"/>
</g>
<defs>
<clipPath id="clip0_295_606">
<rect width="74.7059" height="60" fill="white"/>
</clipPath>
</defs>
</svg>
