<svg width="390" height="416" viewBox="0 0 390 416" fill="none" xmlns="http://www.w3.org/2000/svg">
<path d="M300.854 64.1346C325.136 78.7657 343.373 103.814 356.752 131.011C370.13 158.207 379.063 187.175 376.921 215.617C374.797 243.664 361.598 271.186 343.539 292.53C325.479 313.874 302.125 329.813 277.452 340.14C252.779 350.466 226.749 355.971 197.197 360.515C167.625 365.456 134.531 369.436 114.601 355.011C94.293 340.172 87.1296 307.324 76.2185 278.262C65.3074 249.2 51.0067 224.735 45.9915 196.746C41.3717 168.776 45.9999 138.073 60.348 111.399C74.6774 85.1201 98.3312 62.852 125.792 52.2614C153.271 41.2752 184.558 41.9666 215.392 43.8259C246.208 46.0807 276.949 49.9178 300.854 64.1346Z" fill="#1572A1"/>
</svg>
