<svg width="354" height="314" viewBox="0 0 354 314" fill="none" xmlns="http://www.w3.org/2000/svg">
<g filter="url(#filter0_d_345_364)">
<path d="M239 30.5C263.045 69.5592 262.5 95.4999 322 137.5C335.5 151 345.983 175.073 342.5 195.504C338.146 221.043 323.149 250.087 292.671 254.093C262.193 258.099 239.455 253.092 196.883 276.127C149.203 301.926 96.741 309.177 56.1035 290.649C15.4661 272.121 7.72572 250.588 0.952826 212.53C-5.82007 174.472 24.658 146.43 56.1035 134.412C87.5491 122.393 98.6761 96.3537 96.741 63.3035C94.8058 30.2533 124.8 5.71637 154.311 2.21077C168 0.584577 216.195 -6.54594 239 30.5Z" fill="url(#paint0_linear_345_364)" shape-rendering="crispEdges"/>
</g>
<defs>
<filter id="filter0_d_345_364" x="0" y="0.586365" width="353.175" height="313.414" filterUnits="userSpaceOnUse" color-interpolation-filters="sRGB">
<feFlood flood-opacity="0" result="BackgroundImageFix"/>
<feColorMatrix in="SourceAlpha" type="matrix" values="0 0 0 0 0 0 0 0 0 0 0 0 0 0 0 0 0 0 127 0" result="hardAlpha"/>
<feOffset dx="5" dy="8"/>
<feGaussianBlur stdDeviation="2.5"/>
<feComposite in2="hardAlpha" operator="out"/>
<feColorMatrix type="matrix" values="0 0 0 0 0.0425174 0 0 0 0 0.234319 0 0 0 0 0.329167 0 0 0 1 0"/>
<feBlend mode="normal" in2="BackgroundImageFix" result="effect1_dropShadow_345_364"/>
<feBlend mode="normal" in="SourceGraphic" in2="effect1_dropShadow_345_364" result="shape"/>
</filter>
<linearGradient id="paint0_linear_345_364" x1="171.587" y1="0.586365" x2="171.587" y2="301" gradientUnits="userSpaceOnUse">
<stop offset="0.0208333" stop-color="#1572A0" stop-opacity="0"/>
<stop offset="0.536458" stop-color="#1572A0"/>
</linearGradient>
</defs>
</svg>
