<svg width="30" height="22" viewBox="0 0 30 22" fill="none" xmlns="http://www.w3.org/2000/svg">
<g clip-path="url(#clip0_309_113)">
<path d="M15.0004 8.9641L27.7408 1.02012C27.6022 0.99816 27.4616 0.983887 27.3175 0.983887H2.68324C2.53913 0.983887 2.39832 0.998709 2.26025 1.02012L15.0004 8.9641Z" fill="#151B29"/>
<path d="M15.8021 12.0358C15.785 12.0468 15.7664 12.0539 15.7488 12.0643C15.7304 12.0745 15.7107 12.0844 15.6923 12.0937C15.5921 12.1453 15.4889 12.1868 15.3835 12.2142C15.3725 12.2172 15.3621 12.2189 15.3516 12.2211C15.2355 12.2482 15.1189 12.265 15.0019 12.265H15.0008H14.9994C14.8825 12.265 14.7656 12.2485 14.65 12.2211C14.6393 12.2186 14.6283 12.2169 14.6176 12.2142C14.5122 12.1865 14.4098 12.145 14.3091 12.0937C14.2902 12.0844 14.271 12.0745 14.2523 12.0643C14.2344 12.0542 14.2161 12.047 14.1985 12.0358L0.0419968 3.2085C0.0164693 3.35754 0 3.51016 0 3.66717V17.8333C0 19.315 1.20089 20.5161 2.68286 20.5161H27.3171C28.7988 20.5161 30 19.315 30 17.8333V3.66717C30 3.51016 29.9838 3.35782 29.9577 3.2085L15.8021 12.0358Z" fill="#151B29"/>
</g>
<defs>
<clipPath id="clip0_309_113">
<rect width="30" height="21.5" fill="white" transform="translate(0 0.25)"/>
</clipPath>
</defs>
</svg>
