<svg width="30" height="30" viewBox="0 0 30 30" fill="none" xmlns="http://www.w3.org/2000/svg">
<path d="M10.6583 14.7187C9.70972 13.3458 9.14543 11.6894 9.029 11.5487C10.4183 10.5801 13.1354 9.36296 13.2876 7.61653C13.4811 5.3601 9.65829 0.642955 8.92543 0.600098C6.91972 0.621526 3.249 4.01581 2.814 5.04153C2.00543 7.16224 2.40614 9.13581 3.79614 11.993C5.56614 16.243 12.1404 24.3051 15.9011 26.8358C18.3897 28.7458 20.2076 29.4958 22.3783 29.043C23.3876 28.8515 27.0326 25.8608 27.3976 23.8387C27.4869 23.0887 23.2497 18.1165 21.0583 17.9194C19.3569 17.7622 17.7254 20.3094 16.5561 21.5544C16.4397 21.4058 15.4426 20.628 14.3726 19.3965C12.9797 17.933 11.6854 16.2137 10.6583 14.7187Z" fill="#151B29"/>
</svg>
