<svg width="30" height="30" viewBox="0 0 30 30" fill="none" xmlns="http://www.w3.org/2000/svg">
<g clip-path="url(#clip0_309_109)">
<path d="M7.83862 24.7968L8.93087 25.4349C10.7728 26.5092 12.8677 27.0731 15 27.0687C17.3871 27.0687 19.7205 26.3609 21.7052 25.0348C23.6899 23.7086 25.2368 21.8237 26.1503 19.6184C27.0638 17.4131 27.3028 14.9864 26.8371 12.6452C26.3714 10.3041 25.222 8.15361 23.5341 6.46573C21.8462 4.77786 19.6957 3.6284 17.3546 3.16272C15.0134 2.69703 12.5868 2.93604 10.3815 3.84951C8.17614 4.76298 6.29122 6.30989 4.96507 8.29462C3.63891 10.2794 2.93108 12.6128 2.93108 14.9998C2.93108 17.1662 3.49983 19.2435 4.56642 21.0705L5.20306 22.1627L4.21793 25.7849L7.83862 24.7968ZM-0.080127 30.086L1.95953 22.5912C0.615555 20.2873 -0.0905425 17.667 -0.0861614 14.9998C-0.0861614 6.66767 6.66793 -0.0864258 15 -0.0864258C23.3322 -0.0864258 30.0863 6.66767 30.0863 14.9998C30.0863 23.3319 23.3322 30.086 15 30.086C12.334 30.0903 9.71483 29.3847 7.41168 28.0418L-0.080127 30.086ZM9.55543 7.92133C9.75759 7.90625 9.96125 7.90625 10.1634 7.9153C10.2449 7.92133 10.3263 7.93038 10.4078 7.93944C10.6477 7.96659 10.9117 8.11293 11.0007 8.31508C11.4503 9.33491 11.8878 10.3623 12.3102 11.3927C12.4037 11.622 12.3479 11.9162 12.1699 12.2028C12.0474 12.3966 11.915 12.5839 11.7731 12.764C11.6026 12.9828 11.236 13.384 11.236 13.384C11.236 13.384 11.0867 13.5621 11.144 13.7838C11.1651 13.8683 11.2345 13.9905 11.2979 14.0931L11.3869 14.2364C11.7731 14.8806 12.2921 15.5338 12.9257 16.1494C13.1067 16.3244 13.2832 16.5039 13.4733 16.6713C14.1794 17.2944 14.9789 17.8028 15.8419 18.18L15.8494 18.183C15.9776 18.2388 16.0425 18.269 16.2296 18.3489C16.3231 18.3881 16.4197 18.4228 16.5177 18.4485C16.6191 18.4743 16.7258 18.4694 16.8243 18.4345C16.9229 18.3996 17.0089 18.3362 17.0714 18.2524C18.1636 16.9293 18.2632 16.8433 18.2722 16.8433V16.8463C18.3481 16.7756 18.4383 16.7218 18.5366 16.6888C18.635 16.6558 18.7393 16.6441 18.8425 16.6547C18.933 16.6608 19.025 16.6774 19.1095 16.7151C19.9106 17.0817 21.2216 17.6534 21.2216 17.6534L22.0996 18.0472C22.2475 18.1181 22.3817 18.2856 22.3863 18.447C22.3923 18.5481 22.4013 18.711 22.3666 19.0097C22.3184 19.4004 22.2007 19.8696 22.083 20.1155C22.0024 20.2833 21.8955 20.4371 21.7662 20.5711C21.614 20.731 21.4473 20.8764 21.2684 21.0056C21.2065 21.0522 21.1436 21.0974 21.0798 21.1414C20.8921 21.2604 20.6994 21.3712 20.502 21.4733C20.1136 21.6796 19.6846 21.798 19.2453 21.8203C18.9662 21.8353 18.6871 21.8565 18.4065 21.8414C18.3944 21.8414 17.5496 21.7101 17.5496 21.7101C15.4047 21.146 13.4211 20.0891 11.7565 18.6235C11.4156 18.3233 11.1003 18.0004 10.7774 17.6791C9.43474 16.344 8.42095 14.9032 7.80543 13.5425C7.49039 12.8746 7.32021 12.1476 7.30608 11.4093C7.29986 10.4933 7.59928 9.60143 8.15694 8.87478C8.26707 8.73297 8.37117 8.58513 8.55069 8.41465C8.74229 8.23362 8.86298 8.13707 8.99423 8.07069C9.16873 7.98323 9.35911 7.93192 9.55393 7.91982L9.55543 7.92133Z" fill="#151B29"/>
</g>
<defs>
<clipPath id="clip0_309_109">
<rect width="30" height="30" fill="white"/>
</clipPath>
</defs>
</svg>
